solid ASCII
  facet normal -9.914449e-01 -1.590714e-02 -1.295533e-01
    outer loop
      vertex   -6.635000e+01 9.349488e+01 -2.262365e+01
      vertex   -6.635000e+01 8.406569e+01 -2.146589e+01
      vertex   -6.641815e+01 9.355796e+01 -2.210987e+01
    endloop
  endfacet
  facet normal -9.914449e-01 -1.590714e-02 -1.295533e-01
    outer loop
      vertex   -6.641815e+01 9.355796e+01 -2.210987e+01
      vertex   -6.635000e+01 8.406569e+01 -2.146589e+01
      vertex   -6.641815e+01 8.412878e+01 -2.095211e+01
    endloop
  endfacet
  facet normal -9.238795e-01 -4.663738e-02 -3.798310e-01
    outer loop
      vertex   -6.641815e+01 9.355796e+01 -2.210987e+01
      vertex   -6.641815e+01 8.412878e+01 -2.095211e+01
      vertex   -6.661795e+01 9.361675e+01 -2.163111e+01
    endloop
  endfacet
  facet normal -9.238795e-01 -4.663738e-02 -3.798310e-01
    outer loop
      vertex   -6.661795e+01 9.361675e+01 -2.163111e+01
      vertex   -6.641815e+01 8.412878e+01 -2.095211e+01
      vertex   -6.661795e+01 8.418756e+01 -2.047335e+01
    endloop
  endfacet
  facet normal -7.933533e-01 -7.418936e-02 -6.042238e-01
    outer loop
      vertex   -6.661795e+01 9.361675e+01 -2.163111e+01
      vertex   -6.661795e+01 8.418756e+01 -2.047335e+01
      vertex   -6.693579e+01 9.366723e+01 -2.121998e+01
    endloop
  endfacet
  facet normal -7.933533e-01 -7.418936e-02 -6.042238e-01
    outer loop
      vertex   -6.693579e+01 9.366723e+01 -2.121998e+01
      vertex   -6.661795e+01 8.418756e+01 -2.047335e+01
      vertex   -6.693579e+01 8.423804e+01 -2.006222e+01
    endloop
  endfacet
  facet normal -6.087614e-01 -9.668545e-02 -7.874398e-01
    outer loop
      vertex   -6.693579e+01 9.366723e+01 -2.121998e+01
      vertex   -6.693579e+01 8.423804e+01 -2.006222e+01
      vertex   -6.735000e+01 9.370596e+01 -2.090451e+01
    endloop
  endfacet
  facet normal -6.087614e-01 -9.668545e-02 -7.874398e-01
    outer loop
      vertex   -6.735000e+01 9.370596e+01 -2.090451e+01
      vertex   -6.693579e+01 8.423804e+01 -2.006222e+01
      vertex   -6.735000e+01 8.427678e+01 -1.974675e+01
    endloop
  endfacet
  facet normal -3.826834e-01 -1.125926e-01 -9.169931e-01
    outer loop
      vertex   -6.735000e+01 9.370596e+01 -2.090451e+01
      vertex   -6.735000e+01 8.427678e+01 -1.974675e+01
      vertex   -6.783236e+01 9.373031e+01 -2.070620e+01
    endloop
  endfacet
  facet normal -3.826834e-01 -1.125926e-01 -9.169931e-01
    outer loop
      vertex   -6.783236e+01 9.373031e+01 -2.070620e+01
      vertex   -6.735000e+01 8.427678e+01 -1.974675e+01
      vertex   -6.783236e+01 8.430113e+01 -1.954844e+01
    endloop
  endfacet
  facet normal -1.305262e-01 -1.208267e-01 -9.840548e-01
    outer loop
      vertex   -6.783236e+01 9.373031e+01 -2.070620e+01
      vertex   -6.783236e+01 8.430113e+01 -1.954844e+01
      vertex   -6.835000e+01 9.373862e+01 -2.063856e+01
    endloop
  endfacet
  facet normal -1.305262e-01 -1.208267e-01 -9.840548e-01
    outer loop
      vertex   -6.835000e+01 9.373862e+01 -2.063856e+01
      vertex   -6.783236e+01 8.430113e+01 -1.954844e+01
      vertex   -6.835000e+01 8.430943e+01 -1.948080e+01
    endloop
  endfacet
  facet normal -0.000000e+00 -1.218693e-01 -9.925462e-01
    outer loop
      vertex   -6.835000e+01 8.430943e+01 -1.948080e+01
      vertex   -8.285000e+01 8.430943e+01 -1.948080e+01
      vertex   -6.835000e+01 9.373862e+01 -2.063856e+01
    endloop
  endfacet
  facet normal -0.000000e+00 -1.218693e-01 -9.925462e-01
    outer loop
      vertex   -6.835000e+01 9.373862e+01 -2.063856e+01
      vertex   -8.285000e+01 8.430943e+01 -1.948080e+01
      vertex   -8.285000e+01 9.373862e+01 -2.063856e+01
    endloop
  endfacet
  facet normal 9.914449e-01 -1.590714e-02 -1.295533e-01
    outer loop
      vertex   -8.485000e+01 8.406569e+01 -2.146589e+01
      vertex   -8.485000e+01 9.349488e+01 -2.262365e+01
      vertex   -8.478185e+01 8.412878e+01 -2.095211e+01
    endloop
  endfacet
  facet normal 9.914449e-01 -1.590714e-02 -1.295533e-01
    outer loop
      vertex   -8.478185e+01 8.412878e+01 -2.095211e+01
      vertex   -8.485000e+01 9.349488e+01 -2.262365e+01
      vertex   -8.478185e+01 9.355796e+01 -2.210987e+01
    endloop
  endfacet
  facet normal 9.238795e-01 -4.663738e-02 -3.798310e-01
    outer loop
      vertex   -8.478185e+01 8.412878e+01 -2.095211e+01
      vertex   -8.478185e+01 9.355796e+01 -2.210987e+01
      vertex   -8.458205e+01 8.418756e+01 -2.047335e+01
    endloop
  endfacet
  facet normal 9.238795e-01 -4.663738e-02 -3.798310e-01
    outer loop
      vertex   -8.458205e+01 8.418756e+01 -2.047335e+01
      vertex   -8.478185e+01 9.355796e+01 -2.210987e+01
      vertex   -8.458205e+01 9.361675e+01 -2.163111e+01
    endloop
  endfacet
  facet normal 7.933533e-01 -7.418936e-02 -6.042238e-01
    outer loop
      vertex   -8.458205e+01 8.418756e+01 -2.047335e+01
      vertex   -8.458205e+01 9.361675e+01 -2.163111e+01
      vertex   -8.426421e+01 8.423804e+01 -2.006222e+01
    endloop
  endfacet
  facet normal 7.933533e-01 -7.418936e-02 -6.042238e-01
    outer loop
      vertex   -8.426421e+01 8.423804e+01 -2.006222e+01
      vertex   -8.458205e+01 9.361675e+01 -2.163111e+01
      vertex   -8.426421e+01 9.366723e+01 -2.121998e+01
    endloop
  endfacet
  facet normal 6.087614e-01 -9.668545e-02 -7.874398e-01
    outer loop
      vertex   -8.426421e+01 8.423804e+01 -2.006222e+01
      vertex   -8.426421e+01 9.366723e+01 -2.121998e+01
      vertex   -8.385000e+01 8.427678e+01 -1.974675e+01
    endloop
  endfacet
  facet normal 6.087614e-01 -9.668545e-02 -7.874398e-01
    outer loop
      vertex   -8.385000e+01 8.427678e+01 -1.974675e+01
      vertex   -8.426421e+01 9.366723e+01 -2.121998e+01
      vertex   -8.385000e+01 9.370596e+01 -2.090451e+01
    endloop
  endfacet
  facet normal 3.826834e-01 -1.125926e-01 -9.169931e-01
    outer loop
      vertex   -8.385000e+01 8.427678e+01 -1.974675e+01
      vertex   -8.385000e+01 9.370596e+01 -2.090451e+01
      vertex   -8.336764e+01 8.430113e+01 -1.954844e+01
    endloop
  endfacet
  facet normal 3.826834e-01 -1.125926e-01 -9.169931e-01
    outer loop
      vertex   -8.336764e+01 8.430113e+01 -1.954844e+01
      vertex   -8.385000e+01 9.370596e+01 -2.090451e+01
      vertex   -8.336764e+01 9.373031e+01 -2.070620e+01
    endloop
  endfacet
  facet normal 1.305262e-01 -1.208267e-01 -9.840548e-01
    outer loop
      vertex   -8.336764e+01 8.430113e+01 -1.954844e+01
      vertex   -8.336764e+01 9.373031e+01 -2.070620e+01
      vertex   -8.285000e+01 8.430943e+01 -1.948080e+01
    endloop
  endfacet
  facet normal 1.305262e-01 -1.208267e-01 -9.840548e-01
    outer loop
      vertex   -8.285000e+01 8.430943e+01 -1.948080e+01
      vertex   -8.336764e+01 9.373031e+01 -2.070620e+01
      vertex   -8.285000e+01 9.373862e+01 -2.063856e+01
    endloop
  endfacet
  facet normal -9.801714e-02 9.877668e-01 -1.212825e-01
    outer loop
      vertex   -9.287545e+01 9.303391e+01 -2.558958e+01
      vertex   -9.287545e+01 9.460245e+01 -1.281490e+01
      vertex   -9.190000e+01 9.312927e+01 -2.560129e+01
    endloop
  endfacet
  facet normal -1.067081e-01 9.867978e-01 -1.218339e-01
    outer loop
      vertex   -9.190000e+01 9.312927e+01 -2.560129e+01
      vertex   -9.287545e+01 9.460245e+01 -1.281490e+01
      vertex   -9.276824e+01 9.618980e+01 -5.196214e-02
    endloop
  endfacet
  facet normal -8.715335e-02 9.887694e-01 -1.214055e-01
    outer loop
      vertex   -9.190000e+01 9.312927e+01 -2.560129e+01
      vertex   -9.276824e+01 9.618980e+01 -5.196214e-02
      vertex   -9.190000e+01 9.626634e+01 -5.192911e-02
    endloop
  endfacet
  facet normal -2.902847e-01 9.498074e-01 -1.166217e-01
    outer loop
      vertex   -9.287545e+01 9.460245e+01 -1.281490e+01
      vertex   -9.287545e+01 9.303391e+01 -2.558958e+01
      vertex   -9.381342e+01 9.432004e+01 -1.278023e+01
    endloop
  endfacet
  facet normal -2.902847e-01 9.498074e-01 -1.166217e-01
    outer loop
      vertex   -9.381342e+01 9.432004e+01 -1.278023e+01
      vertex   -9.287545e+01 9.303391e+01 -2.558958e+01
      vertex   -9.381342e+01 9.275151e+01 -2.555491e+01
    endloop
  endfacet
  facet normal -4.713967e-01 8.753476e-01 -1.074792e-01
    outer loop
      vertex   -9.381342e+01 9.432004e+01 -1.278023e+01
      vertex   -9.381342e+01 9.275151e+01 -2.555491e+01
      vertex   -9.467785e+01 9.386143e+01 -1.272392e+01
    endloop
  endfacet
  facet normal -4.713967e-01 8.753476e-01 -1.074792e-01
    outer loop
      vertex   -9.467785e+01 9.386143e+01 -1.272392e+01
      vertex   -9.381342e+01 9.275151e+01 -2.555491e+01
      vertex   -9.467785e+01 9.229290e+01 -2.549860e+01
    endloop
  endfacet
  facet normal -6.343933e-01 7.672486e-01 -9.420628e-02
    outer loop
      vertex   -9.467785e+01 9.386143e+01 -1.272392e+01
      vertex   -9.467785e+01 9.229290e+01 -2.549860e+01
      vertex   -9.543553e+01 9.324426e+01 -1.264814e+01
    endloop
  endfacet
  facet normal -6.343933e-01 7.672486e-01 -9.420628e-02
    outer loop
      vertex   -9.543553e+01 9.324426e+01 -1.264814e+01
      vertex   -9.467785e+01 9.229290e+01 -2.549860e+01
      vertex   -9.543553e+01 9.167572e+01 -2.542282e+01
    endloop
  endfacet
  facet normal -7.730105e-01 6.296646e-01 -7.731309e-02
    outer loop
      vertex   -9.543553e+01 9.324426e+01 -1.264814e+01
      vertex   -9.543553e+01 9.167572e+01 -2.542282e+01
      vertex   -9.605735e+01 9.249222e+01 -1.255580e+01
    endloop
  endfacet
  facet normal -7.730105e-01 6.296646e-01 -7.731309e-02
    outer loop
      vertex   -9.605735e+01 9.249222e+01 -1.255580e+01
      vertex   -9.543553e+01 9.167572e+01 -2.542282e+01
      vertex   -9.605735e+01 9.092369e+01 -2.533048e+01
    endloop
  endfacet
  facet normal -8.819213e-01 4.678830e-01 -5.744881e-02
    outer loop
      vertex   -9.605735e+01 9.249222e+01 -1.255580e+01
      vertex   -9.605735e+01 9.092369e+01 -2.533048e+01
      vertex   -9.651940e+01 9.163423e+01 -1.245045e+01
    endloop
  endfacet
  facet normal -8.819213e-01 4.678830e-01 -5.744881e-02
    outer loop
      vertex   -9.651940e+01 9.163423e+01 -1.245045e+01
      vertex   -9.605735e+01 9.092369e+01 -2.533048e+01
      vertex   -9.651940e+01 9.006570e+01 -2.522513e+01
    endloop
  endfacet
  facet normal -9.569403e-01 2.881209e-01 -3.537680e-02
    outer loop
      vertex   -9.651940e+01 9.163423e+01 -1.245045e+01
      vertex   -9.651940e+01 9.006570e+01 -2.522513e+01
      vertex   -9.680393e+01 9.070326e+01 -1.233614e+01
    endloop
  endfacet
  facet normal -9.569403e-01 2.881209e-01 -3.537680e-02
    outer loop
      vertex   -9.680393e+01 9.070326e+01 -1.233614e+01
      vertex   -9.651940e+01 9.006570e+01 -2.522513e+01
      vertex   -9.680393e+01 8.913472e+01 -2.511082e+01
    endloop
  endfacet
  facet normal -9.951847e-01 9.728654e-02 -1.194528e-02
    outer loop
      vertex   -9.680393e+01 9.070326e+01 -1.233614e+01
      vertex   -9.680393e+01 8.913472e+01 -2.511082e+01
      vertex   -9.690000e+01 8.816654e+01 -2.499194e+01
    endloop
  endfacet
  facet normal -9.951848e-01 9.728543e-02 -1.194506e-02
    outer loop
      vertex   -9.690000e+01 8.816654e+01 -2.499194e+01
      vertex   -9.690000e+01 9.122852e+01 -5.410372e-02
      vertex   -9.680393e+01 9.070326e+01 -1.233614e+01
    endloop
  endfacet
  facet normal -9.961853e-01 8.650319e-02 -1.149176e-02
    outer loop
      vertex   -9.680393e+01 9.070326e+01 -1.233614e+01
      vertex   -9.690000e+01 9.122852e+01 -5.410372e-02
      vertex   -9.682404e+01 9.210333e+01 -5.372610e-02
    endloop
  endfacet
  facet normal -9.659463e-01 2.568950e-01 -3.086525e-02
    outer loop
      vertex   -9.680393e+01 9.070326e+01 -1.233614e+01
      vertex   -9.682404e+01 9.210333e+01 -5.372610e-02
      vertex   -9.659846e+01 9.295156e+01 -5.335996e-02
    endloop
  endfacet
  facet normal -9.569395e-01 2.879580e-01 -3.670183e-02
    outer loop
      vertex   -9.680393e+01 9.070326e+01 -1.233614e+01
      vertex   -9.659846e+01 9.295156e+01 -5.335996e-02
      vertex   -9.651940e+01 9.163423e+01 -1.245045e+01
    endloop
  endfacet
  facet normal -9.063611e-01 4.194923e-01 -5.035624e-02
    outer loop
      vertex   -9.651940e+01 9.163423e+01 -1.245045e+01
      vertex   -9.659846e+01 9.295156e+01 -5.335996e-02
      vertex   -9.623013e+01 9.374743e+01 -5.301641e-02
    endloop
  endfacet
  facet normal -8.819200e-01 4.676747e-01 -5.913945e-02
    outer loop
      vertex   -9.651940e+01 9.163423e+01 -1.245045e+01
      vertex   -9.623013e+01 9.374743e+01 -5.301641e-02
      vertex   -9.605735e+01 9.249222e+01 -1.255580e+01
    endloop
  endfacet
  facet normal -8.192332e-01 5.693569e-01 -6.848149e-02
    outer loop
      vertex   -9.605735e+01 9.249222e+01 -1.255580e+01
      vertex   -9.623013e+01 9.374743e+01 -5.301641e-02
      vertex   -9.573022e+01 9.446677e+01 -5.270590e-02
    endloop
  endfacet
  facet normal -7.730091e-01 6.294344e-01 -7.917862e-02
    outer loop
      vertex   -9.605735e+01 9.249222e+01 -1.255580e+01
      vertex   -9.573022e+01 9.446677e+01 -5.270590e-02
      vertex   -9.543553e+01 9.324426e+01 -1.264814e+01
    endloop
  endfacet
  facet normal -7.071984e-01 7.019264e-01 -8.467495e-02
    outer loop
      vertex   -9.543553e+01 9.324426e+01 -1.264814e+01
      vertex   -9.573022e+01 9.446677e+01 -5.270590e-02
      vertex   -9.511394e+01 9.508771e+01 -5.243787e-02
    endloop
  endfacet
  facet normal -6.343922e-01 7.670195e-01 -9.606064e-02
    outer loop
      vertex   -9.543553e+01 9.324426e+01 -1.264814e+01
      vertex   -9.511394e+01 9.508771e+01 -5.243787e-02
      vertex   -9.467785e+01 9.386143e+01 -1.272392e+01
    endloop
  endfacet
  facet normal -5.736568e-01 8.131595e-01 -9.843563e-02
    outer loop
      vertex   -9.467785e+01 9.386143e+01 -1.272392e+01
      vertex   -9.511394e+01 9.508771e+01 -5.243787e-02
      vertex   -9.440000e+01 9.559140e+01 -5.222045e-02
    endloop
  endfacet
  facet normal -4.713961e-01 8.751424e-01 -1.091399e-01
    outer loop
      vertex   -9.467785e+01 9.386143e+01 -1.272392e+01
      vertex   -9.440000e+01 9.559140e+01 -5.222045e-02
      vertex   -9.381342e+01 9.432004e+01 -1.278023e+01
    endloop
  endfacet
  facet normal -4.226705e-01 8.996630e-01 -1.093436e-01
    outer loop
      vertex   -9.381342e+01 9.432004e+01 -1.278023e+01
      vertex   -9.440000e+01 9.559140e+01 -5.222045e-02
      vertex   -9.361010e+01 9.596252e+01 -5.206025e-02
    endloop
  endfacet
  facet normal -2.902844e-01 9.496486e-01 -1.179086e-01
    outer loop
      vertex   -9.381342e+01 9.432004e+01 -1.278023e+01
      vertex   -9.361010e+01 9.596252e+01 -5.206025e-02
      vertex   -9.287545e+01 9.460245e+01 -1.281490e+01
    endloop
  endfacet
  facet normal -2.588389e-01 9.587993e-01 -1.170737e-01
    outer loop
      vertex   -9.287545e+01 9.460245e+01 -1.281490e+01
      vertex   -9.361010e+01 9.596252e+01 -5.206025e-02
      vertex   -9.276824e+01 9.618980e+01 -5.196214e-02
    endloop
  endfacet
  facet normal -1.000000e+00 -3.749199e-11 8.685590e-08
    outer loop
      vertex   -9.690000e+01 9.122852e+01 -5.410372e-02
      vertex   -9.690000e+01 8.816654e+01 -2.499194e+01
      vertex   -9.690000e+01 -2.877882e+00 -9.472544e-02
    endloop
  endfacet
  facet normal -1.000000e+00 1.938548e-08 1.578820e-07
    outer loop
      vertex   -9.690000e+01 -2.877882e+00 -9.472544e-02
      vertex   -9.690000e+01 8.816654e+01 -2.499194e+01
      vertex   -9.690000e+01 -4.537269e+00 -1.360935e+01
    endloop
  endfacet
  facet normal 4.752413e-17 -1.218693e-01 -9.925462e-01
    outer loop
      vertex   -9.690000e+01 -4.537269e+00 -1.360935e+01
      vertex   -9.690000e+01 8.816654e+01 -2.499194e+01
      vertex   -8.740000e+01 8.370008e+01 -2.444353e+01
    endloop
  endfacet
  facet normal -2.330449e-16 -1.218693e-01 -9.925462e-01
    outer loop
      vertex   -8.740000e+01 8.370008e+01 -2.444353e+01
      vertex   -9.690000e+01 8.816654e+01 -2.499194e+01
      vertex   -9.680393e+01 8.913472e+01 -2.511082e+01
    endloop
  endfacet
  facet normal -3.917974e-15 -1.218693e-01 -9.925462e-01
    outer loop
      vertex   -8.740000e+01 8.370008e+01 -2.444353e+01
      vertex   -9.680393e+01 8.913472e+01 -2.511082e+01
      vertex   -9.651940e+01 9.006570e+01 -2.522513e+01
    endloop
  endfacet
  facet normal 3.198898e-15 -1.218693e-01 -9.925462e-01
    outer loop
      vertex   -9.651940e+01 9.006570e+01 -2.522513e+01
      vertex   -9.605735e+01 9.092369e+01 -2.533048e+01
      vertex   -8.740000e+01 8.370008e+01 -2.444353e+01
    endloop
  endfacet
  facet normal 3.191606e-16 -1.218693e-01 -9.925462e-01
    outer loop
      vertex   -8.740000e+01 8.370008e+01 -2.444353e+01
      vertex   -9.605735e+01 9.092369e+01 -2.533048e+01
      vertex   -9.543553e+01 9.167572e+01 -2.542282e+01
    endloop
  endfacet
  facet normal -1.304038e-15 -1.218693e-01 -9.925462e-01
    outer loop
      vertex   -8.740000e+01 8.370008e+01 -2.444353e+01
      vertex   -9.543553e+01 9.167572e+01 -2.542282e+01
      vertex   -9.467785e+01 9.229290e+01 -2.549860e+01
    endloop
  endfacet
  facet normal 2.372338e-16 -1.218693e-01 -9.925462e-01
    outer loop
      vertex   -9.467785e+01 9.229290e+01 -2.549860e+01
      vertex   -9.381342e+01 9.275151e+01 -2.555491e+01
      vertex   -8.740000e+01 8.370008e+01 -2.444353e+01
    endloop
  endfacet
  facet normal -2.227236e-15 -1.218693e-01 -9.925462e-01
    outer loop
      vertex   -8.740000e+01 8.370008e+01 -2.444353e+01
      vertex   -9.381342e+01 9.275151e+01 -2.555491e+01
      vertex   -9.287545e+01 9.303391e+01 -2.558958e+01
    endloop
  endfacet
  facet normal 8.676410e-15 -1.218693e-01 -9.925462e-01
    outer loop
      vertex   -8.740000e+01 8.370008e+01 -2.444353e+01
      vertex   -9.287545e+01 9.303391e+01 -2.558958e+01
      vertex   -9.190000e+01 9.312927e+01 -2.560129e+01
    endloop
  endfacet
  facet normal 0.000000e+00 -1.218693e-01 -9.925462e-01
    outer loop
      vertex   -9.190000e+01 9.312927e+01 -2.560129e+01
      vertex   -8.485000e+01 9.312927e+01 -2.560129e+01
      vertex   -8.740000e+01 8.370008e+01 -2.444353e+01
    endloop
  endfacet
  facet normal 0.000000e+00 -1.218693e-01 -9.925462e-01
    outer loop
      vertex   -8.740000e+01 8.370008e+01 -2.444353e+01
      vertex   -8.485000e+01 9.312927e+01 -2.560129e+01
      vertex   -8.485000e+01 8.370008e+01 -2.444353e+01
    endloop
  endfacet
  facet normal -1.180343e-16 -1.218693e-01 -9.925462e-01
    outer loop
      vertex   -8.740000e+01 8.370008e+01 -2.444353e+01
      vertex   -8.740000e+01 -7.081156e-02 -1.415776e+01
      vertex   -9.690000e+01 -4.537269e+00 -1.360935e+01
    endloop
  endfacet
  facet normal -1.013717e-15 -1.218693e-01 -9.925462e-01
    outer loop
      vertex   -9.690000e+01 -4.537269e+00 -1.360935e+01
      vertex   -8.740000e+01 -7.081156e-02 -1.415776e+01
      vertex   -9.680393e+01 -5.505450e+00 -1.349047e+01
    endloop
  endfacet
  facet normal 3.566618e-16 -1.218693e-01 -9.925462e-01
    outer loop
      vertex   -9.680393e+01 -5.505450e+00 -1.349047e+01
      vertex   -8.740000e+01 -7.081156e-02 -1.415776e+01
      vertex   -9.651940e+01 -6.436424e+00 -1.337616e+01
    endloop
  endfacet
  facet normal 2.417181e-16 -1.218693e-01 -9.925462e-01
    outer loop
      vertex   -9.651940e+01 -6.436424e+00 -1.337616e+01
      vertex   -8.740000e+01 -7.081156e-02 -1.415776e+01
      vertex   -9.605735e+01 -7.294415e+00 -1.327081e+01
    endloop
  endfacet
  facet normal -6.860420e-17 -1.218693e-01 -9.925462e-01
    outer loop
      vertex   -9.605735e+01 -7.294415e+00 -1.327081e+01
      vertex   -8.740000e+01 -7.081156e-02 -1.415776e+01
      vertex   -9.543553e+01 -8.046450e+00 -1.317847e+01
    endloop
  endfacet
  facet normal -1.131906e-15 -1.218693e-01 -9.925462e-01
    outer loop
      vertex   -9.543553e+01 -8.046450e+00 -1.317847e+01
      vertex   -8.740000e+01 -7.081156e-02 -1.415776e+01
      vertex   -9.467785e+01 -8.663629e+00 -1.310269e+01
    endloop
  endfacet
  facet normal 2.424710e-15 -1.218693e-01 -9.925462e-01
    outer loop
      vertex   -9.467785e+01 -8.663629e+00 -1.310269e+01
      vertex   -8.740000e+01 -7.081156e-02 -1.415776e+01
      vertex   -9.381342e+01 -9.122235e+00 -1.304638e+01
    endloop
  endfacet
  facet normal -2.794429e-16 -1.218693e-01 -9.925462e-01
    outer loop
      vertex   -9.381342e+01 -9.122235e+00 -1.304638e+01
      vertex   -8.740000e+01 -7.081156e-02 -1.415776e+01
      vertex   -9.287545e+01 -9.404643e+00 -1.301171e+01
    endloop
  endfacet
  facet normal -1.306291e-15 -1.218693e-01 -9.925462e-01
    outer loop
      vertex   -9.287545e+01 -9.404643e+00 -1.301171e+01
      vertex   -8.740000e+01 -7.081156e-02 -1.415776e+01
      vertex   -9.190000e+01 -9.500000e+00 -1.300000e+01
    endloop
  endfacet
  facet normal 0.000000e+00 -1.218693e-01 -9.925462e-01
    outer loop
      vertex   -9.190000e+01 -9.500000e+00 -1.300000e+01
      vertex   -8.740000e+01 -7.081156e-02 -1.415776e+01
      vertex   4.490090e+00 -9.500000e+00 -1.300000e+01
    endloop
  endfacet
  facet normal 2.632760e-19 -1.218693e-01 -9.925462e-01
    outer loop
      vertex   4.490090e+00 -9.500000e+00 -1.300000e+01
      vertex   -8.740000e+01 -7.081156e-02 -1.415776e+01
      vertex   0.000000e+00 -7.081156e-02 -1.415776e+01
    endloop
  endfacet
  facet normal 3.033903e-15 -1.218693e-01 -9.925462e-01
    outer loop
      vertex   4.490090e+00 -9.500000e+00 -1.300000e+01
      vertex   0.000000e+00 -7.081156e-02 -1.415776e+01
      vertex   5.465541e+00 -9.404643e+00 -1.301171e+01
    endloop
  endfacet
  facet normal 5.232558e-16 -1.218693e-01 -9.925462e-01
    outer loop
      vertex   5.465541e+00 -9.404643e+00 -1.301171e+01
      vertex   0.000000e+00 -7.081156e-02 -1.415776e+01
      vertex   6.403507e+00 -9.122235e+00 -1.304638e+01
    endloop
  endfacet
  facet normal -1.039970e-15 -1.218693e-01 -9.925462e-01
    outer loop
      vertex   6.403507e+00 -9.122235e+00 -1.304638e+01
      vertex   0.000000e+00 -7.081156e-02 -1.415776e+01
      vertex   7.267941e+00 -8.663629e+00 -1.310269e+01
    endloop
  endfacet
  facet normal 2.871598e-16 -1.218693e-01 -9.925462e-01
    outer loop
      vertex   7.267941e+00 -8.663629e+00 -1.310269e+01
      vertex   0.000000e+00 -7.081156e-02 -1.415776e+01
      vertex   8.025623e+00 -8.046450e+00 -1.317847e+01
    endloop
  endfacet
  facet normal 2.195845e-16 -1.218693e-01 -9.925462e-01
    outer loop
      vertex   8.025623e+00 -8.046450e+00 -1.317847e+01
      vertex   0.000000e+00 -7.081156e-02 -1.415776e+01
      vertex   8.647438e+00 -7.294415e+00 -1.327081e+01
    endloop
  endfacet
  facet normal -6.030450e-17 -1.218693e-01 -9.925462e-01
    outer loop
      vertex   8.647438e+00 -7.294415e+00 -1.327081e+01
      vertex   0.000000e+00 -7.081156e-02 -1.415776e+01
      vertex   9.109487e+00 -6.436424e+00 -1.337616e+01
    endloop
  endfacet
  facet normal -1.849914e-17 -1.218693e-01 -9.925462e-01
    outer loop
      vertex   9.109487e+00 -6.436424e+00 -1.337616e+01
      vertex   0.000000e+00 -7.081156e-02 -1.415776e+01
      vertex   9.394016e+00 -5.505450e+00 -1.349047e+01
    endloop
  endfacet
  facet normal 2.016735e-16 -1.218693e-01 -9.925462e-01
    outer loop
      vertex   9.394016e+00 -5.505450e+00 -1.349047e+01
      vertex   0.000000e+00 -7.081156e-02 -1.415776e+01
      vertex   9.490090e+00 -4.537269e+00 -1.360935e+01
    endloop
  endfacet
  facet normal 1.558137e-16 -1.218693e-01 -9.925462e-01
    outer loop
      vertex   9.490090e+00 -4.537269e+00 -1.360935e+01
      vertex   0.000000e+00 -7.081156e-02 -1.415776e+01
      vertex   0.000000e+00 8.370008e+01 -2.444353e+01
    endloop
  endfacet
  facet normal 1.071213e-16 -1.218693e-01 -9.925462e-01
    outer loop
      vertex   9.490090e+00 -4.537269e+00 -1.360935e+01
      vertex   0.000000e+00 8.370008e+01 -2.444353e+01
      vertex   9.490090e+00 8.816654e+01 -2.499194e+01
    endloop
  endfacet
  facet normal 2.078748e-16 -1.218693e-01 -9.925462e-01
    outer loop
      vertex   9.490090e+00 8.816654e+01 -2.499194e+01
      vertex   0.000000e+00 8.370008e+01 -2.444353e+01
      vertex   4.490090e+00 9.312927e+01 -2.560129e+01
    endloop
  endfacet
  facet normal -2.262320e-15 -1.218693e-01 -9.925462e-01
    outer loop
      vertex   9.490090e+00 8.816654e+01 -2.499194e+01
      vertex   4.490090e+00 9.312927e+01 -2.560129e+01
      vertex   9.394016e+00 8.913472e+01 -2.511082e+01
    endloop
  endfacet
  facet normal -7.933900e-16 -1.218693e-01 -9.925462e-01
    outer loop
      vertex   9.394016e+00 8.913472e+01 -2.511082e+01
      vertex   4.490090e+00 9.312927e+01 -2.560129e+01
      vertex   9.109487e+00 9.006570e+01 -2.522513e+01
    endloop
  endfacet
  facet normal 5.014204e-16 -1.218693e-01 -9.925462e-01
    outer loop
      vertex   9.109487e+00 9.006570e+01 -2.522513e+01
      vertex   4.490090e+00 9.312927e+01 -2.560129e+01
      vertex   8.647438e+00 9.092369e+01 -2.533048e+01
    endloop
  endfacet
  facet normal 4.239511e-15 -1.218693e-01 -9.925462e-01
    outer loop
      vertex   8.647438e+00 9.092369e+01 -2.533048e+01
      vertex   4.490090e+00 9.312927e+01 -2.560129e+01
      vertex   8.025623e+00 9.167572e+01 -2.542282e+01
    endloop
  endfacet
  facet normal -5.792589e-15 -1.218693e-01 -9.925462e-01
    outer loop
      vertex   8.025623e+00 9.167572e+01 -2.542282e+01
      vertex   4.490090e+00 9.312927e+01 -2.560129e+01
      vertex   7.267941e+00 9.229290e+01 -2.549860e+01
    endloop
  endfacet
  facet normal -2.163882e-15 -1.218693e-01 -9.925462e-01
    outer loop
      vertex   7.267941e+00 9.229290e+01 -2.549860e+01
      vertex   4.490090e+00 9.312927e+01 -2.560129e+01
      vertex   6.403507e+00 9.275151e+01 -2.555491e+01
    endloop
  endfacet
  facet normal 4.851521e-15 -1.218693e-01 -9.925462e-01
    outer loop
      vertex   6.403507e+00 9.275151e+01 -2.555491e+01
      vertex   4.490090e+00 9.312927e+01 -2.560129e+01
      vertex   5.465541e+00 9.303391e+01 -2.558958e+01
    endloop
  endfacet
  facet normal 0.000000e+00 -1.218693e-01 -9.925462e-01
    outer loop
      vertex   -6.635000e+01 8.370008e+01 -2.444353e+01
      vertex   -6.635000e+01 9.312927e+01 -2.560129e+01
      vertex   0.000000e+00 8.370008e+01 -2.444353e+01
    endloop
  endfacet
  facet normal -1.206562e-18 -1.218693e-01 -9.925462e-01
    outer loop
      vertex   0.000000e+00 8.370008e+01 -2.444353e+01
      vertex   -6.635000e+01 9.312927e+01 -2.560129e+01
      vertex   4.490090e+00 9.312927e+01 -2.560129e+01
    endloop
  endfacet
  facet normal 9.951847e-01 9.728654e-02 -1.194528e-02
    outer loop
      vertex   9.394016e+00 8.913472e+01 -2.511082e+01
      vertex   9.394016e+00 9.070326e+01 -1.233614e+01
      vertex   9.490090e+00 8.816654e+01 -2.499194e+01
    endloop
  endfacet
  facet normal 9.942563e-01 1.061411e-01 -1.372714e-02
    outer loop
      vertex   9.490090e+00 8.816654e+01 -2.499194e+01
      vertex   9.394016e+00 9.070326e+01 -1.233614e+01
      vertex   9.414128e+00 9.210333e+01 -5.372610e-02
    endloop
  endfacet
  facet normal 9.961947e-01 8.650610e-02 -1.062161e-02
    outer loop
      vertex   9.490090e+00 8.816654e+01 -2.499194e+01
      vertex   9.414128e+00 9.210333e+01 -5.372610e-02
      vertex   9.490090e+00 9.122852e+01 -5.410372e-02
    endloop
  endfacet
  facet normal 9.569403e-01 2.881209e-01 -3.537680e-02
    outer loop
      vertex   9.394016e+00 9.070326e+01 -1.233614e+01
      vertex   9.394016e+00 8.913472e+01 -2.511082e+01
      vertex   9.109487e+00 9.163423e+01 -1.245045e+01
    endloop
  endfacet
  facet normal 9.569403e-01 2.881209e-01 -3.537680e-02
    outer loop
      vertex   9.109487e+00 9.163423e+01 -1.245045e+01
      vertex   9.394016e+00 8.913472e+01 -2.511082e+01
      vertex   9.109487e+00 9.006570e+01 -2.522513e+01
    endloop
  endfacet
  facet normal 8.819213e-01 4.678830e-01 -5.744881e-02
    outer loop
      vertex   9.109487e+00 9.163423e+01 -1.245045e+01
      vertex   9.109487e+00 9.006570e+01 -2.522513e+01
      vertex   8.647438e+00 9.249222e+01 -1.255580e+01
    endloop
  endfacet
  facet normal 8.819213e-01 4.678830e-01 -5.744881e-02
    outer loop
      vertex   8.647438e+00 9.249222e+01 -1.255580e+01
      vertex   9.109487e+00 9.006570e+01 -2.522513e+01
      vertex   8.647438e+00 9.092369e+01 -2.533048e+01
    endloop
  endfacet
  facet normal 7.730105e-01 6.296646e-01 -7.731309e-02
    outer loop
      vertex   8.647438e+00 9.249222e+01 -1.255580e+01
      vertex   8.647438e+00 9.092369e+01 -2.533048e+01
      vertex   8.025623e+00 9.324426e+01 -1.264814e+01
    endloop
  endfacet
  facet normal 7.730105e-01 6.296646e-01 -7.731309e-02
    outer loop
      vertex   8.025623e+00 9.324426e+01 -1.264814e+01
      vertex   8.647438e+00 9.092369e+01 -2.533048e+01
      vertex   8.025623e+00 9.167572e+01 -2.542282e+01
    endloop
  endfacet
  facet normal 6.343933e-01 7.672486e-01 -9.420628e-02
    outer loop
      vertex   8.025623e+00 9.324426e+01 -1.264814e+01
      vertex   8.025623e+00 9.167572e+01 -2.542282e+01
      vertex   7.267941e+00 9.386143e+01 -1.272392e+01
    endloop
  endfacet
  facet normal 6.343933e-01 7.672486e-01 -9.420628e-02
    outer loop
      vertex   7.267941e+00 9.386143e+01 -1.272392e+01
      vertex   8.025623e+00 9.167572e+01 -2.542282e+01
      vertex   7.267941e+00 9.229290e+01 -2.549860e+01
    endloop
  endfacet
  facet normal 4.713967e-01 8.753476e-01 -1.074792e-01
    outer loop
      vertex   7.267941e+00 9.386143e+01 -1.272392e+01
      vertex   7.267941e+00 9.229290e+01 -2.549860e+01
      vertex   6.403507e+00 9.432004e+01 -1.278023e+01
    endloop
  endfacet
  facet normal 4.713967e-01 8.753476e-01 -1.074792e-01
    outer loop
      vertex   6.403507e+00 9.432004e+01 -1.278023e+01
      vertex   7.267941e+00 9.229290e+01 -2.549860e+01
      vertex   6.403507e+00 9.275151e+01 -2.555491e+01
    endloop
  endfacet
  facet normal 2.902847e-01 9.498074e-01 -1.166217e-01
    outer loop
      vertex   6.403507e+00 9.432004e+01 -1.278023e+01
      vertex   6.403507e+00 9.275151e+01 -2.555491e+01
      vertex   5.465541e+00 9.460245e+01 -1.281490e+01
    endloop
  endfacet
  facet normal 2.902847e-01 9.498074e-01 -1.166217e-01
    outer loop
      vertex   5.465541e+00 9.460245e+01 -1.281490e+01
      vertex   6.403507e+00 9.275151e+01 -2.555491e+01
      vertex   5.465541e+00 9.303391e+01 -2.558958e+01
    endloop
  endfacet
  facet normal 9.801714e-02 9.877668e-01 -1.212825e-01
    outer loop
      vertex   5.465541e+00 9.460245e+01 -1.281490e+01
      vertex   5.465541e+00 9.303391e+01 -2.558958e+01
      vertex   4.490090e+00 9.312927e+01 -2.560129e+01
    endloop
  endfacet
  facet normal 9.801608e-02 9.877669e-01 -1.212824e-01
    outer loop
      vertex   4.490090e+00 9.312927e+01 -2.560129e+01
      vertex   4.490090e+00 9.626634e+01 -5.192911e-02
      vertex   5.465541e+00 9.460245e+01 -1.281490e+01
    endloop
  endfacet
  facet normal 8.714443e-02 9.886685e-01 -1.222309e-01
    outer loop
      vertex   5.465541e+00 9.460245e+01 -1.281490e+01
      vertex   4.490090e+00 9.626634e+01 -5.192911e-02
      vertex   5.358330e+00 9.618980e+01 -5.196214e-02
    endloop
  endfacet
  facet normal 2.588389e-01 9.587993e-01 -1.170737e-01
    outer loop
      vertex   5.465541e+00 9.460245e+01 -1.281490e+01
      vertex   5.358330e+00 9.618980e+01 -5.196214e-02
      vertex   6.200190e+00 9.596252e+01 -5.206025e-02
    endloop
  endfacet
  facet normal 2.902844e-01 9.496486e-01 -1.179086e-01
    outer loop
      vertex   5.465541e+00 9.460245e+01 -1.281490e+01
      vertex   6.200190e+00 9.596252e+01 -5.206025e-02
      vertex   6.403507e+00 9.432004e+01 -1.278023e+01
    endloop
  endfacet
  facet normal 4.226705e-01 8.996630e-01 -1.093436e-01
    outer loop
      vertex   6.403507e+00 9.432004e+01 -1.278023e+01
      vertex   6.200190e+00 9.596252e+01 -5.206025e-02
      vertex   6.990090e+00 9.559140e+01 -5.222045e-02
    endloop
  endfacet
  facet normal 4.713961e-01 8.751424e-01 -1.091399e-01
    outer loop
      vertex   6.403507e+00 9.432004e+01 -1.278023e+01
      vertex   6.990090e+00 9.559140e+01 -5.222045e-02
      vertex   7.267941e+00 9.386143e+01 -1.272392e+01
    endloop
  endfacet
  facet normal 5.736568e-01 8.131595e-01 -9.843563e-02
    outer loop
      vertex   7.267941e+00 9.386143e+01 -1.272392e+01
      vertex   6.990090e+00 9.559140e+01 -5.222045e-02
      vertex   7.704028e+00 9.508771e+01 -5.243787e-02
    endloop
  endfacet
  facet normal 6.343922e-01 7.670195e-01 -9.606064e-02
    outer loop
      vertex   7.267941e+00 9.386143e+01 -1.272392e+01
      vertex   7.704028e+00 9.508771e+01 -5.243787e-02
      vertex   8.025623e+00 9.324426e+01 -1.264814e+01
    endloop
  endfacet
  facet normal 7.071984e-01 7.019264e-01 -8.467495e-02
    outer loop
      vertex   8.025623e+00 9.324426e+01 -1.264814e+01
      vertex   7.704028e+00 9.508771e+01 -5.243787e-02
      vertex   8.320312e+00 9.446677e+01 -5.270590e-02
    endloop
  endfacet
  facet normal 7.730091e-01 6.294344e-01 -7.917862e-02
    outer loop
      vertex   8.025623e+00 9.324426e+01 -1.264814e+01
      vertex   8.320312e+00 9.446677e+01 -5.270590e-02
      vertex   8.647438e+00 9.249222e+01 -1.255580e+01
    endloop
  endfacet
  facet normal 8.192332e-01 5.693569e-01 -6.848149e-02
    outer loop
      vertex   8.647438e+00 9.249222e+01 -1.255580e+01
      vertex   8.320312e+00 9.446677e+01 -5.270590e-02
      vertex   8.820217e+00 9.374743e+01 -5.301641e-02
    endloop
  endfacet
  facet normal 8.819200e-01 4.676747e-01 -5.913945e-02
    outer loop
      vertex   8.647438e+00 9.249222e+01 -1.255580e+01
      vertex   8.820217e+00 9.374743e+01 -5.301641e-02
      vertex   9.109487e+00 9.163423e+01 -1.245045e+01
    endloop
  endfacet
  facet normal 9.063611e-01 4.194923e-01 -5.035624e-02
    outer loop
      vertex   9.109487e+00 9.163423e+01 -1.245045e+01
      vertex   8.820217e+00 9.374743e+01 -5.301641e-02
      vertex   9.188553e+00 9.295156e+01 -5.335996e-02
    endloop
  endfacet
  facet normal 9.569395e-01 2.879580e-01 -3.670183e-02
    outer loop
      vertex   9.109487e+00 9.163423e+01 -1.245045e+01
      vertex   9.188553e+00 9.295156e+01 -5.335996e-02
      vertex   9.394016e+00 9.070326e+01 -1.233614e+01
    endloop
  endfacet
  facet normal 9.659463e-01 2.568950e-01 -3.086525e-02
    outer loop
      vertex   9.394016e+00 9.070326e+01 -1.233614e+01
      vertex   9.188553e+00 9.295156e+01 -5.335996e-02
      vertex   9.414128e+00 9.210333e+01 -5.372610e-02
    endloop
  endfacet
  facet normal 1.000000e+00 -3.074918e-20 7.123516e-17
    outer loop
      vertex   9.490090e+00 9.122852e+01 -5.410372e-02
      vertex   9.490090e+00 -2.877882e+00 -9.472544e-02
      vertex   9.490090e+00 8.816654e+01 -2.499194e+01
    endloop
  endfacet
  facet normal 1.000000e+00 1.589906e-17 1.294875e-16
    outer loop
      vertex   9.490090e+00 8.816654e+01 -2.499194e+01
      vertex   9.490090e+00 -2.877882e+00 -9.472544e-02
      vertex   9.490090e+00 -4.537269e+00 -1.360935e+01
    endloop
  endfacet
  facet normal 8.728584e-16 -4.316574e-04 9.999999e-01
    outer loop
      vertex   -9.276824e+01 9.618980e+01 -5.196214e-02
      vertex   -9.361010e+01 9.596252e+01 -5.206025e-02
      vertex   -9.190000e+01 9.626634e+01 -5.192911e-02
    endloop
  endfacet
  facet normal 4.818527e-16 -4.316574e-04 9.999999e-01
    outer loop
      vertex   -9.190000e+01 9.626634e+01 -5.192911e-02
      vertex   -9.361010e+01 9.596252e+01 -5.206025e-02
      vertex   -9.440000e+01 9.559140e+01 -5.222045e-02
    endloop
  endfacet
  facet normal 3.315211e-16 -4.316574e-04 9.999999e-01
    outer loop
      vertex   -9.190000e+01 9.626634e+01 -5.192911e-02
      vertex   -9.440000e+01 9.559140e+01 -5.222045e-02
      vertex   -9.511394e+01 9.508771e+01 -5.243787e-02
    endloop
  endfacet
  facet normal 2.504947e-16 -4.316574e-04 9.999999e-01
    outer loop
      vertex   -9.511394e+01 9.508771e+01 -5.243787e-02
      vertex   -9.573022e+01 9.446677e+01 -5.270590e-02
      vertex   -9.190000e+01 9.626634e+01 -5.192911e-02
    endloop
  endfacet
  facet normal 1.997605e-16 -4.316574e-04 9.999999e-01
    outer loop
      vertex   -9.190000e+01 9.626634e+01 -5.192911e-02
      vertex   -9.573022e+01 9.446677e+01 -5.270590e-02
      vertex   -9.623013e+01 9.374743e+01 -5.301641e-02
    endloop
  endfacet
  facet normal 1.627682e-16 -4.316574e-04 9.999999e-01
    outer loop
      vertex   -9.190000e+01 9.626634e+01 -5.192911e-02
      vertex   -9.623013e+01 9.374743e+01 -5.301641e-02
      vertex   -9.659846e+01 9.295156e+01 -5.335996e-02
    endloop
  endfacet
  facet normal 1.320959e-16 -4.316574e-04 9.999999e-01
    outer loop
      vertex   -9.659846e+01 9.295156e+01 -5.335996e-02
      vertex   -9.682404e+01 9.210333e+01 -5.372610e-02
      vertex   -9.190000e+01 9.626634e+01 -5.192911e-02
    endloop
  endfacet
  facet normal 1.183210e-15 -4.316574e-04 9.999999e-01
    outer loop
      vertex   -9.190000e+01 9.626634e+01 -5.192911e-02
      vertex   -9.682404e+01 9.210333e+01 -5.372610e-02
      vertex   -9.690000e+01 9.122852e+01 -5.410372e-02
    endloop
  endfacet
  facet normal 0.000000e+00 -4.316574e-04 9.999999e-01
    outer loop
      vertex   -9.190000e+01 9.626634e+01 -5.192911e-02
      vertex   -9.690000e+01 9.122852e+01 -5.410372e-02
      vertex   4.490090e+00 9.626634e+01 -5.192911e-02
    endloop
  endfacet
  facet normal -1.676136e-17 -4.316574e-04 9.999999e-01
    outer loop
      vertex   4.490090e+00 9.626634e+01 -5.192911e-02
      vertex   -9.690000e+01 9.122852e+01 -5.410372e-02
      vertex   9.490090e+00 9.122852e+01 -5.410372e-02
    endloop
  endfacet
  facet normal 6.282844e-15 -4.316574e-04 9.999999e-01
    outer loop
      vertex   4.490090e+00 9.626634e+01 -5.192911e-02
      vertex   9.490090e+00 9.122852e+01 -5.410372e-02
      vertex   9.414128e+00 9.210333e+01 -5.372610e-02
    endloop
  endfacet
  facet normal -1.676186e-17 -4.316574e-04 9.999999e-01
    outer loop
      vertex   -9.690000e+01 9.122852e+01 -5.410372e-02
      vertex   -9.690000e+01 -2.877882e+00 -9.472544e-02
      vertex   9.490090e+00 9.122852e+01 -5.410372e-02
    endloop
  endfacet
  facet normal -1.670125e-17 -4.316574e-04 9.999999e-01
    outer loop
      vertex   9.490090e+00 9.122852e+01 -5.410372e-02
      vertex   -9.690000e+01 -2.877882e+00 -9.472544e-02
      vertex   9.490090e+00 -2.877882e+00 -9.472544e-02
    endloop
  endfacet
  facet normal -1.666060e-17 -4.316522e-04 9.999999e-01
    outer loop
      vertex   9.490090e+00 -2.877882e+00 -9.472544e-02
      vertex   -9.690000e+01 -2.877882e+00 -9.472544e-02
      vertex   4.490090e+00 -7.915699e+00 -9.690003e-02
    endloop
  endfacet
  facet normal 5.691745e-09 -4.316579e-04 9.999999e-01
    outer loop
      vertex   9.490090e+00 -2.877882e+00 -9.472544e-02
      vertex   4.490090e+00 -7.915699e+00 -9.690003e-02
      vertex   9.414128e+00 -3.752690e+00 -9.510306e-02
    endloop
  endfacet
  facet normal 6.803596e-09 -4.316592e-04 9.999999e-01
    outer loop
      vertex   9.414128e+00 -3.752690e+00 -9.510306e-02
      vertex   4.490090e+00 -7.915699e+00 -9.690003e-02
      vertex   9.188553e+00 -4.600917e+00 -9.546920e-02
    endloop
  endfacet
  facet normal 8.206689e-09 -4.316612e-04 9.999999e-01
    outer loop
      vertex   9.188553e+00 -4.600917e+00 -9.546920e-02
      vertex   4.490090e+00 -7.915699e+00 -9.690003e-02
      vertex   8.820217e+00 -5.396790e+00 -9.581275e-02
    endloop
  endfacet
  facet normal 1.006699e-08 -4.316644e-04 9.999999e-01
    outer loop
      vertex   8.820217e+00 -5.396790e+00 -9.581275e-02
      vertex   4.490090e+00 -7.915699e+00 -9.690003e-02
      vertex   8.320312e+00 -6.116128e+00 -9.612326e-02
    endloop
  endfacet
  facet normal 1.270395e-08 -4.316700e-04 9.999999e-01
    outer loop
      vertex   8.320312e+00 -6.116128e+00 -9.612326e-02
      vertex   4.490090e+00 -7.915699e+00 -9.690003e-02
      vertex   7.704028e+00 -6.737073e+00 -9.639129e-02
    endloop
  endfacet
  facet normal 1.682662e-08 -4.316812e-04 9.999999e-01
    outer loop
      vertex   7.704028e+00 -6.737073e+00 -9.639129e-02
      vertex   4.490090e+00 -7.915699e+00 -9.690003e-02
      vertex   6.990090e+00 -7.240759e+00 -9.660871e-02
    endloop
  endfacet
  facet normal 2.441942e-08 -4.317093e-04 9.999999e-01
    outer loop
      vertex   6.990090e+00 -7.240759e+00 -9.660871e-02
      vertex   4.490090e+00 -7.915699e+00 -9.690003e-02
      vertex   6.200190e+00 -7.611881e+00 -9.676891e-02
    endloop
  endfacet
  facet normal 4.441028e-08 -4.318219e-04 9.999999e-01
    outer loop
      vertex   6.200190e+00 -7.611881e+00 -9.676891e-02
      vertex   4.490090e+00 -7.915699e+00 -9.690003e-02
      vertex   5.358330e+00 -7.839163e+00 -9.686702e-02
    endloop
  endfacet
  facet normal 0.000000e+00 -4.316522e-04 9.999999e-01
    outer loop
      vertex   4.490090e+00 -7.915699e+00 -9.690003e-02
      vertex   -9.690000e+01 -2.877882e+00 -9.472544e-02
      vertex   -9.190000e+01 -7.915699e+00 -9.690003e-02
    endloop
  endfacet
  facet normal -5.691730e-09 -4.316579e-04 9.999999e-01
    outer loop
      vertex   -9.190000e+01 -7.915699e+00 -9.690003e-02
      vertex   -9.690000e+01 -2.877882e+00 -9.472544e-02
      vertex   -9.682404e+01 -3.752690e+00 -9.510306e-02
    endloop
  endfacet
  facet normal -6.803596e-09 -4.316592e-04 9.999999e-01
    outer loop
      vertex   -9.190000e+01 -7.915699e+00 -9.690003e-02
      vertex   -9.682404e+01 -3.752690e+00 -9.510306e-02
      vertex   -9.659846e+01 -4.600917e+00 -9.546920e-02
    endloop
  endfacet
  facet normal -8.206688e-09 -4.316612e-04 9.999999e-01
    outer loop
      vertex   -9.659846e+01 -4.600917e+00 -9.546920e-02
      vertex   -9.623013e+01 -5.396790e+00 -9.581275e-02
      vertex   -9.190000e+01 -7.915699e+00 -9.690003e-02
    endloop
  endfacet
  facet normal -1.006699e-08 -4.316644e-04 9.999999e-01
    outer loop
      vertex   -9.190000e+01 -7.915699e+00 -9.690003e-02
      vertex   -9.623013e+01 -5.396790e+00 -9.581275e-02
      vertex   -9.573022e+01 -6.116128e+00 -9.612326e-02
    endloop
  endfacet
  facet normal -1.270394e-08 -4.316700e-04 9.999999e-01
    outer loop
      vertex   -9.190000e+01 -7.915699e+00 -9.690003e-02
      vertex   -9.573022e+01 -6.116128e+00 -9.612326e-02
      vertex   -9.511394e+01 -6.737073e+00 -9.639129e-02
    endloop
  endfacet
  facet normal -1.682662e-08 -4.316812e-04 9.999999e-01
    outer loop
      vertex   -9.511394e+01 -6.737073e+00 -9.639129e-02
      vertex   -9.440000e+01 -7.240759e+00 -9.660871e-02
      vertex   -9.190000e+01 -7.915699e+00 -9.690003e-02
    endloop
  endfacet
  facet normal -2.441942e-08 -4.317093e-04 9.999999e-01
    outer loop
      vertex   -9.190000e+01 -7.915699e+00 -9.690003e-02
      vertex   -9.440000e+01 -7.240759e+00 -9.660871e-02
      vertex   -9.361010e+01 -7.611881e+00 -9.676891e-02
    endloop
  endfacet
  facet normal -4.441028e-08 -4.318219e-04 9.999999e-01
    outer loop
      vertex   -9.190000e+01 -7.915699e+00 -9.690003e-02
      vertex   -9.361010e+01 -7.611881e+00 -9.676891e-02
      vertex   -9.276824e+01 -7.839163e+00 -9.686702e-02
    endloop
  endfacet
  facet normal 1.030568e-15 -4.316574e-04 9.999999e-01
    outer loop
      vertex   9.414128e+00 9.210333e+01 -5.372610e-02
      vertex   9.188553e+00 9.295156e+01 -5.335996e-02
      vertex   4.490090e+00 9.626634e+01 -5.192911e-02
    endloop
  endfacet
  facet normal 1.240637e-15 -4.316574e-04 9.999999e-01
    outer loop
      vertex   4.490090e+00 9.626634e+01 -5.192911e-02
      vertex   9.188553e+00 9.295156e+01 -5.335996e-02
      vertex   8.820217e+00 9.374743e+01 -5.301641e-02
    endloop
  endfacet
  facet normal 1.512429e-15 -4.316574e-04 9.999999e-01
    outer loop
      vertex   4.490090e+00 9.626634e+01 -5.192911e-02
      vertex   8.820217e+00 9.374743e+01 -5.301641e-02
      vertex   8.320312e+00 9.446677e+01 -5.270590e-02
    endloop
  endfacet
  facet normal 1.937148e-15 -4.316574e-04 9.999999e-01
    outer loop
      vertex   8.320312e+00 9.446677e+01 -5.270590e-02
      vertex   7.704028e+00 9.508771e+01 -5.243787e-02
      vertex   4.490090e+00 9.626634e+01 -5.192911e-02
    endloop
  endfacet
  facet normal 2.540628e-15 -4.316574e-04 9.999999e-01
    outer loop
      vertex   4.490090e+00 9.626634e+01 -5.192911e-02
      vertex   7.704028e+00 9.508771e+01 -5.243787e-02
      vertex   6.990090e+00 9.559140e+01 -5.222045e-02
    endloop
  endfacet
  facet normal 3.705890e-15 -4.316574e-04 9.999999e-01
    outer loop
      vertex   4.490090e+00 9.626634e+01 -5.192911e-02
      vertex   6.990090e+00 9.559140e+01 -5.222045e-02
      vertex   6.200190e+00 9.596252e+01 -5.206025e-02
    endloop
  endfacet
  facet normal 6.701705e-15 -4.316574e-04 9.999999e-01
    outer loop
      vertex   6.200190e+00 9.596252e+01 -5.206025e-02
      vertex   5.358330e+00 9.618980e+01 -5.196214e-02
      vertex   4.490090e+00 9.626634e+01 -5.192911e-02
    endloop
  endfacet
  facet normal -9.961949e-01 -8.650365e-02 1.062147e-02
    outer loop
      vertex   -9.690000e+01 -2.877882e+00 -9.472544e-02
      vertex   -9.690000e+01 -4.537269e+00 -1.360935e+01
      vertex   -9.682404e+01 -3.752690e+00 -9.510306e-02
    endloop
  endfacet
  facet normal -9.951845e-01 -9.737228e-02 1.124678e-02
    outer loop
      vertex   -9.682404e+01 -3.752690e+00 -9.510306e-02
      vertex   -9.690000e+01 -4.537269e+00 -1.360935e+01
      vertex   -9.680393e+01 -5.505450e+00 -1.349047e+01
    endloop
  endfacet
  facet normal -9.659066e-01 -2.568850e-01 3.216270e-02
    outer loop
      vertex   -9.682404e+01 -3.752690e+00 -9.510306e-02
      vertex   -9.680393e+01 -5.505450e+00 -1.349047e+01
      vertex   -9.659846e+01 -4.600917e+00 -9.546920e-02
    endloop
  endfacet
  facet normal -9.569396e-01 -2.882720e-01 3.414464e-02
    outer loop
      vertex   -9.659846e+01 -4.600917e+00 -9.546920e-02
      vertex   -9.680393e+01 -5.505450e+00 -1.349047e+01
      vertex   -9.651940e+01 -6.436424e+00 -1.337616e+01
    endloop
  endfacet
  facet normal -9.062569e-01 -4.194451e-01 5.257564e-02
    outer loop
      vertex   -9.659846e+01 -4.600917e+00 -9.546920e-02
      vertex   -9.651940e+01 -6.436424e+00 -1.337616e+01
      vertex   -9.623013e+01 -5.396790e+00 -9.581275e-02
    endloop
  endfacet
  facet normal -8.819201e-01 -4.680784e-01 5.585273e-02
    outer loop
      vertex   -9.623013e+01 -5.396790e+00 -9.581275e-02
      vertex   -9.651940e+01 -6.436424e+00 -1.337616e+01
      vertex   -9.605735e+01 -7.294415e+00 -1.327081e+01
    endloop
  endfacet
  facet normal -8.190735e-01 -5.692471e-01 7.124846e-02
    outer loop
      vertex   -9.623013e+01 -5.396790e+00 -9.581275e-02
      vertex   -9.605735e+01 -7.294415e+00 -1.327081e+01
      vertex   -9.573022e+01 -6.116128e+00 -9.612326e-02
    endloop
  endfacet
  facet normal -7.730092e-01 -6.298828e-01 7.552768e-02
    outer loop
      vertex   -9.573022e+01 -6.116128e+00 -9.612326e-02
      vertex   -9.605735e+01 -7.294415e+00 -1.327081e+01
      vertex   -9.543553e+01 -8.046450e+00 -1.317847e+01
    endloop
  endfacet
  facet normal -7.070171e-01 -7.017477e-01 8.761798e-02
    outer loop
      vertex   -9.573022e+01 -6.116128e+00 -9.612326e-02
      vertex   -9.543553e+01 -8.046450e+00 -1.317847e+01
      vertex   -9.511394e+01 -6.737073e+00 -9.639129e-02
    endloop
  endfacet
  facet normal -6.343922e-01 -7.674678e-01 9.241052e-02
    outer loop
      vertex   -9.511394e+01 -6.737073e+00 -9.639129e-02
      vertex   -9.543553e+01 -8.046450e+00 -1.317847e+01
      vertex   -9.467785e+01 -8.663629e+00 -1.310269e+01
    endloop
  endfacet
  facet normal -5.734971e-01 -8.129344e-01 1.011870e-01
    outer loop
      vertex   -9.511394e+01 -6.737073e+00 -9.639129e-02
      vertex   -9.467785e+01 -8.663629e+00 -1.310269e+01
      vertex   -9.440000e+01 -7.240759e+00 -9.660871e-02
    endloop
  endfacet
  facet normal -4.713961e-01 -8.755457e-01 1.058555e-01
    outer loop
      vertex   -9.440000e+01 -7.240759e+00 -9.660871e-02
      vertex   -9.467785e+01 -8.663629e+00 -1.310269e+01
      vertex   -9.381342e+01 -9.122235e+00 -1.304638e+01
    endloop
  endfacet
  facet normal -4.225664e-01 -8.994424e-01 1.115393e-01
    outer loop
      vertex   -9.440000e+01 -7.240759e+00 -9.660871e-02
      vertex   -9.381342e+01 -9.122235e+00 -1.304638e+01
      vertex   -9.361010e+01 -7.611881e+00 -9.676891e-02
    endloop
  endfacet
  facet normal -2.902844e-01 -9.499622e-01 1.153547e-01
    outer loop
      vertex   -9.361010e+01 -7.611881e+00 -9.676891e-02
      vertex   -9.381342e+01 -9.122235e+00 -1.304638e+01
      vertex   -9.287545e+01 -9.404643e+00 -1.301171e+01
    endloop
  endfacet
  facet normal -2.587993e-01 -9.586531e-01 1.183521e-01
    outer loop
      vertex   -9.361010e+01 -7.611881e+00 -9.676891e-02
      vertex   -9.287545e+01 -9.404643e+00 -1.301171e+01
      vertex   -9.276824e+01 -7.839163e+00 -9.686702e-02
    endloop
  endfacet
  facet normal -9.801711e-02 -9.878556e-01 1.205571e-01
    outer loop
      vertex   -9.276824e+01 -7.839163e+00 -9.686702e-02
      vertex   -9.287545e+01 -9.404643e+00 -1.301171e+01
      vertex   -9.190000e+01 -9.500000e+00 -1.300000e+01
    endloop
  endfacet
  facet normal -8.715574e-02 -9.887692e-01 1.214056e-01
    outer loop
      vertex   -9.276824e+01 -7.839163e+00 -9.686702e-02
      vertex   -9.190000e+01 -9.500000e+00 -1.300000e+01
      vertex   -9.190000e+01 -7.915699e+00 -9.690003e-02
    endloop
  endfacet
  facet normal 0.000000e+00 -9.925462e-01 1.218693e-01
    outer loop
      vertex   -9.190000e+01 -9.500000e+00 -1.300000e+01
      vertex   4.490090e+00 -9.500000e+00 -1.300000e+01
      vertex   -9.190000e+01 -7.915699e+00 -9.690003e-02
    endloop
  endfacet
  facet normal 0.000000e+00 -9.925462e-01 1.218693e-01
    outer loop
      vertex   -9.190000e+01 -7.915699e+00 -9.690003e-02
      vertex   4.490090e+00 -9.500000e+00 -1.300000e+01
      vertex   4.490090e+00 -7.915699e+00 -9.690003e-02
    endloop
  endfacet
  facet normal 9.961947e-01 -8.650610e-02 1.062161e-02
    outer loop
      vertex   9.490090e+00 -2.877882e+00 -9.472544e-02
      vertex   9.414128e+00 -3.752690e+00 -9.510306e-02
      vertex   9.490090e+00 -4.537269e+00 -1.360935e+01
    endloop
  endfacet
  facet normal 9.951845e-01 -9.737228e-02 1.124678e-02
    outer loop
      vertex   9.490090e+00 -4.537269e+00 -1.360935e+01
      vertex   9.414128e+00 -3.752690e+00 -9.510306e-02
      vertex   9.394016e+00 -5.505450e+00 -1.349047e+01
    endloop
  endfacet
  facet normal 9.659066e-01 -2.568850e-01 3.216270e-02
    outer loop
      vertex   9.394016e+00 -5.505450e+00 -1.349047e+01
      vertex   9.414128e+00 -3.752690e+00 -9.510306e-02
      vertex   9.188553e+00 -4.600917e+00 -9.546920e-02
    endloop
  endfacet
  facet normal 9.569396e-01 -2.882720e-01 3.414464e-02
    outer loop
      vertex   9.394016e+00 -5.505450e+00 -1.349047e+01
      vertex   9.188553e+00 -4.600917e+00 -9.546920e-02
      vertex   9.109487e+00 -6.436424e+00 -1.337616e+01
    endloop
  endfacet
  facet normal 9.062569e-01 -4.194451e-01 5.257564e-02
    outer loop
      vertex   9.109487e+00 -6.436424e+00 -1.337616e+01
      vertex   9.188553e+00 -4.600917e+00 -9.546920e-02
      vertex   8.820217e+00 -5.396790e+00 -9.581275e-02
    endloop
  endfacet
  facet normal 8.819201e-01 -4.680784e-01 5.585273e-02
    outer loop
      vertex   9.109487e+00 -6.436424e+00 -1.337616e+01
      vertex   8.820217e+00 -5.396790e+00 -9.581275e-02
      vertex   8.647438e+00 -7.294415e+00 -1.327081e+01
    endloop
  endfacet
  facet normal 8.190735e-01 -5.692471e-01 7.124846e-02
    outer loop
      vertex   8.647438e+00 -7.294415e+00 -1.327081e+01
      vertex   8.820217e+00 -5.396790e+00 -9.581275e-02
      vertex   8.320312e+00 -6.116128e+00 -9.612326e-02
    endloop
  endfacet
  facet normal 7.730092e-01 -6.298828e-01 7.552768e-02
    outer loop
      vertex   8.647438e+00 -7.294415e+00 -1.327081e+01
      vertex   8.320312e+00 -6.116128e+00 -9.612326e-02
      vertex   8.025623e+00 -8.046450e+00 -1.317847e+01
    endloop
  endfacet
  facet normal 7.070171e-01 -7.017477e-01 8.761798e-02
    outer loop
      vertex   8.025623e+00 -8.046450e+00 -1.317847e+01
      vertex   8.320312e+00 -6.116128e+00 -9.612326e-02
      vertex   7.704028e+00 -6.737073e+00 -9.639129e-02
    endloop
  endfacet
  facet normal 6.343922e-01 -7.674678e-01 9.241052e-02
    outer loop
      vertex   8.025623e+00 -8.046450e+00 -1.317847e+01
      vertex   7.704028e+00 -6.737073e+00 -9.639129e-02
      vertex   7.267941e+00 -8.663629e+00 -1.310269e+01
    endloop
  endfacet
  facet normal 5.734971e-01 -8.129344e-01 1.011870e-01
    outer loop
      vertex   7.267941e+00 -8.663629e+00 -1.310269e+01
      vertex   7.704028e+00 -6.737073e+00 -9.639129e-02
      vertex   6.990090e+00 -7.240759e+00 -9.660871e-02
    endloop
  endfacet
  facet normal 4.713961e-01 -8.755457e-01 1.058555e-01
    outer loop
      vertex   7.267941e+00 -8.663629e+00 -1.310269e+01
      vertex   6.990090e+00 -7.240759e+00 -9.660871e-02
      vertex   6.403507e+00 -9.122235e+00 -1.304638e+01
    endloop
  endfacet
  facet normal 4.225664e-01 -8.994424e-01 1.115393e-01
    outer loop
      vertex   6.403507e+00 -9.122235e+00 -1.304638e+01
      vertex   6.990090e+00 -7.240759e+00 -9.660871e-02
      vertex   6.200190e+00 -7.611881e+00 -9.676891e-02
    endloop
  endfacet
  facet normal 2.902844e-01 -9.499622e-01 1.153547e-01
    outer loop
      vertex   6.403507e+00 -9.122235e+00 -1.304638e+01
      vertex   6.200190e+00 -7.611881e+00 -9.676891e-02
      vertex   5.465541e+00 -9.404643e+00 -1.301171e+01
    endloop
  endfacet
  facet normal 2.587993e-01 -9.586531e-01 1.183521e-01
    outer loop
      vertex   5.465541e+00 -9.404643e+00 -1.301171e+01
      vertex   6.200190e+00 -7.611881e+00 -9.676891e-02
      vertex   5.358330e+00 -7.839163e+00 -9.686702e-02
    endloop
  endfacet
  facet normal 9.801711e-02 -9.878556e-01 1.205571e-01
    outer loop
      vertex   5.465541e+00 -9.404643e+00 -1.301171e+01
      vertex   5.358330e+00 -7.839163e+00 -9.686702e-02
      vertex   4.490090e+00 -9.500000e+00 -1.300000e+01
    endloop
  endfacet
  facet normal 8.715574e-02 -9.887692e-01 1.214056e-01
    outer loop
      vertex   4.490090e+00 -9.500000e+00 -1.300000e+01
      vertex   5.358330e+00 -7.839163e+00 -9.686702e-02
      vertex   4.490090e+00 -7.915699e+00 -9.690003e-02
    endloop
  endfacet
  facet normal -4.713540e-08 9.925462e-01 -1.218693e-01
    outer loop
      vertex   -9.190000e+01 9.626634e+01 -5.192911e-02
      vertex   -8.426421e+01 9.366723e+01 -2.121998e+01
      vertex   -9.190000e+01 9.312927e+01 -2.560129e+01
    endloop
  endfacet
  facet normal 1.842343e-14 9.925462e-01 -1.218693e-01
    outer loop
      vertex   -9.190000e+01 9.312927e+01 -2.560129e+01
      vertex   -8.426421e+01 9.366723e+01 -2.121998e+01
      vertex   -8.458205e+01 9.361675e+01 -2.163111e+01
    endloop
  endfacet
  facet normal -6.865898e-15 9.925462e-01 -1.218693e-01
    outer loop
      vertex   -9.190000e+01 9.312927e+01 -2.560129e+01
      vertex   -8.458205e+01 9.361675e+01 -2.163111e+01
      vertex   -8.478185e+01 9.355796e+01 -2.210987e+01
    endloop
  endfacet
  facet normal 0.000000e+00 9.925462e-01 -1.218692e-01
    outer loop
      vertex   4.490090e+00 9.626634e+01 -5.192911e-02
      vertex   -6.835000e+01 9.373862e+01 -2.063856e+01
      vertex   -9.190000e+01 9.626634e+01 -5.192911e-02
    endloop
  endfacet
  facet normal -8.746367e-18 9.925462e-01 -1.218692e-01
    outer loop
      vertex   -9.190000e+01 9.626634e+01 -5.192911e-02
      vertex   -6.835000e+01 9.373862e+01 -2.063856e+01
      vertex   -8.285000e+01 9.373862e+01 -2.063856e+01
    endloop
  endfacet
  facet normal -1.259839e-08 9.925462e-01 -1.218692e-01
    outer loop
      vertex   -9.190000e+01 9.626634e+01 -5.192911e-02
      vertex   -8.285000e+01 9.373862e+01 -2.063856e+01
      vertex   -8.336764e+01 9.373031e+01 -2.070620e+01
    endloop
  endfacet
  facet normal 9.110076e-09 9.925462e-01 -1.218693e-01
    outer loop
      vertex   -6.835000e+01 9.373862e+01 -2.063856e+01
      vertex   4.490090e+00 9.626634e+01 -5.192911e-02
      vertex   -6.783236e+01 9.373031e+01 -2.070620e+01
    endloop
  endfacet
  facet normal 5.560124e-09 9.925462e-01 -1.218693e-01
    outer loop
      vertex   -6.783236e+01 9.373031e+01 -2.070620e+01
      vertex   4.490090e+00 9.626634e+01 -5.192911e-02
      vertex   4.490090e+00 9.312927e+01 -2.560129e+01
    endloop
  endfacet
  facet normal -1.705531e-15 9.925462e-01 -1.218693e-01
    outer loop
      vertex   -6.783236e+01 9.373031e+01 -2.070620e+01
      vertex   4.490090e+00 9.312927e+01 -2.560129e+01
      vertex   -6.735000e+01 9.370596e+01 -2.090451e+01
    endloop
  endfacet
  facet normal 1.756704e-15 9.925462e-01 -1.218693e-01
    outer loop
      vertex   -6.735000e+01 9.370596e+01 -2.090451e+01
      vertex   4.490090e+00 9.312927e+01 -2.560129e+01
      vertex   -6.693579e+01 9.366723e+01 -2.121998e+01
    endloop
  endfacet
  facet normal 1.214635e-15 9.925462e-01 -1.218693e-01
    outer loop
      vertex   -6.693579e+01 9.366723e+01 -2.121998e+01
      vertex   4.490090e+00 9.312927e+01 -2.560129e+01
      vertex   -6.661795e+01 9.361675e+01 -2.163111e+01
    endloop
  endfacet
  facet normal -7.116418e-16 9.925462e-01 -1.218693e-01
    outer loop
      vertex   -6.661795e+01 9.361675e+01 -2.163111e+01
      vertex   4.490090e+00 9.312927e+01 -2.560129e+01
      vertex   -6.641815e+01 9.355796e+01 -2.210987e+01
    endloop
  endfacet
  facet normal -8.495687e-16 9.925462e-01 -1.218693e-01
    outer loop
      vertex   -6.641815e+01 9.355796e+01 -2.210987e+01
      vertex   4.490090e+00 9.312927e+01 -2.560129e+01
      vertex   -6.635000e+01 9.349488e+01 -2.262365e+01
    endloop
  endfacet
  facet normal 1.855354e-21 9.925462e-01 -1.218693e-01
    outer loop
      vertex   -6.635000e+01 9.349488e+01 -2.262365e+01
      vertex   4.490090e+00 9.312927e+01 -2.560129e+01
      vertex   -6.635000e+01 9.312927e+01 -2.560129e+01
    endloop
  endfacet
  facet normal -3.571220e-08 9.925462e-01 -1.218693e-01
    outer loop
      vertex   -8.336764e+01 9.373031e+01 -2.070620e+01
      vertex   -8.385000e+01 9.370596e+01 -2.090451e+01
      vertex   -9.190000e+01 9.626634e+01 -5.192911e-02
    endloop
  endfacet
  facet normal -5.923923e-08 9.925462e-01 -1.218693e-01
    outer loop
      vertex   -9.190000e+01 9.626634e+01 -5.192911e-02
      vertex   -8.385000e+01 9.370596e+01 -2.090451e+01
      vertex   -8.426421e+01 9.366723e+01 -2.121998e+01
    endloop
  endfacet
  facet normal -2.782893e-15 9.925462e-01 -1.218693e-01
    outer loop
      vertex   -8.478185e+01 9.355796e+01 -2.210987e+01
      vertex   -8.485000e+01 9.349488e+01 -2.262365e+01
      vertex   -9.190000e+01 9.312927e+01 -2.560129e+01
    endloop
  endfacet
  facet normal 0.000000e+00 9.925462e-01 -1.218693e-01
    outer loop
      vertex   -9.190000e+01 9.312927e+01 -2.560129e+01
      vertex   -8.485000e+01 9.349488e+01 -2.262365e+01
      vertex   -8.485000e+01 9.312927e+01 -2.560129e+01
    endloop
  endfacet
  facet normal 1.000000e+00 0.000000e+00 0.000000e+00
    outer loop
      vertex   -8.485000e+01 9.349488e+01 -2.262365e+01
      vertex   -8.485000e+01 8.406569e+01 -2.146589e+01
      vertex   -8.485000e+01 9.312927e+01 -2.560129e+01
    endloop
  endfacet
  facet normal 1.000000e+00 0.000000e+00 0.000000e+00
    outer loop
      vertex   -8.485000e+01 9.312927e+01 -2.560129e+01
      vertex   -8.485000e+01 8.406569e+01 -2.146589e+01
      vertex   -8.485000e+01 8.370008e+01 -2.444353e+01
    endloop
  endfacet
  facet normal 0.000000e+00 -1.218693e-01 -9.925462e-01
    outer loop
      vertex   -8.740000e+01 8.491878e+01 -1.451807e+01
      vertex   0.000000e+00 8.491878e+01 -1.451807e+01
      vertex   -8.740000e+01 1.147882e+00 -4.232297e+00
    endloop
  endfacet
  facet normal 0.000000e+00 -1.218693e-01 -9.925462e-01
    outer loop
      vertex   -8.740000e+01 1.147882e+00 -4.232297e+00
      vertex   0.000000e+00 8.491878e+01 -1.451807e+01
      vertex   0.000000e+00 1.147882e+00 -4.232297e+00
    endloop
  endfacet
  facet normal -1.000000e+00 0.000000e+00 -0.000000e+00
    outer loop
      vertex   0.000000e+00 1.147882e+00 -4.232297e+00
      vertex   0.000000e+00 8.491878e+01 -1.451807e+01
      vertex   0.000000e+00 -7.081156e-02 -1.415776e+01
    endloop
  endfacet
  facet normal -1.000000e+00 0.000000e+00 0.000000e+00
    outer loop
      vertex   0.000000e+00 -7.081156e-02 -1.415776e+01
      vertex   0.000000e+00 8.491878e+01 -1.451807e+01
      vertex   0.000000e+00 8.370008e+01 -2.444353e+01
    endloop
  endfacet
  facet normal 0.000000e+00 -9.925462e-01 1.218693e-01
    outer loop
      vertex   -8.740000e+01 8.491878e+01 -1.451807e+01
      vertex   -6.835000e+01 8.430943e+01 -1.948080e+01
      vertex   0.000000e+00 8.491878e+01 -1.451807e+01
    endloop
  endfacet
  facet normal -3.989579e-16 -9.925462e-01 1.218693e-01
    outer loop
      vertex   0.000000e+00 8.491878e+01 -1.451807e+01
      vertex   -6.835000e+01 8.430943e+01 -1.948080e+01
      vertex   -6.783236e+01 8.430113e+01 -1.954844e+01
    endloop
  endfacet
  facet normal -1.180413e-15 -9.925462e-01 1.218693e-01
    outer loop
      vertex   0.000000e+00 8.491878e+01 -1.451807e+01
      vertex   -6.783236e+01 8.430113e+01 -1.954844e+01
      vertex   -6.735000e+01 8.427678e+01 -1.974675e+01
    endloop
  endfacet
  facet normal -4.093848e-15 -9.925462e-01 1.218693e-01
    outer loop
      vertex   -8.740000e+01 8.370008e+01 -2.444353e+01
      vertex   -8.478185e+01 8.412878e+01 -2.095211e+01
      vertex   -8.740000e+01 8.491878e+01 -1.451807e+01
    endloop
  endfacet
  facet normal -1.919543e-14 -9.925462e-01 1.218693e-01
    outer loop
      vertex   -8.740000e+01 8.491878e+01 -1.451807e+01
      vertex   -8.478185e+01 8.412878e+01 -2.095211e+01
      vertex   -8.458205e+01 8.418756e+01 -2.047335e+01
    endloop
  endfacet
  facet normal 1.065115e-14 -9.925462e-01 1.218693e-01
    outer loop
      vertex   -8.740000e+01 8.491878e+01 -1.451807e+01
      vertex   -8.458205e+01 8.418756e+01 -2.047335e+01
      vertex   -8.426421e+01 8.423804e+01 -2.006222e+01
    endloop
  endfacet
  facet normal 0.000000e+00 -9.925462e-01 1.218693e-01
    outer loop
      vertex   -8.485000e+01 8.370008e+01 -2.444353e+01
      vertex   -8.485000e+01 8.406569e+01 -2.146589e+01
      vertex   -8.740000e+01 8.370008e+01 -2.444353e+01
    endloop
  endfacet
  facet normal 8.538760e-15 -9.925462e-01 1.218693e-01
    outer loop
      vertex   -8.740000e+01 8.370008e+01 -2.444353e+01
      vertex   -8.485000e+01 8.406569e+01 -2.146589e+01
      vertex   -8.478185e+01 8.412878e+01 -2.095211e+01
    endloop
  endfacet
  facet normal -1.460204e-14 -9.925462e-01 1.218693e-01
    outer loop
      vertex   -8.426421e+01 8.423804e+01 -2.006222e+01
      vertex   -8.385000e+01 8.427678e+01 -1.974675e+01
      vertex   -8.740000e+01 8.491878e+01 -1.451807e+01
    endloop
  endfacet
  facet normal 5.582006e-15 -9.925462e-01 1.218693e-01
    outer loop
      vertex   -8.740000e+01 8.491878e+01 -1.451807e+01
      vertex   -8.385000e+01 8.427678e+01 -1.974675e+01
      vertex   -8.336764e+01 8.430113e+01 -1.954844e+01
    endloop
  endfacet
  facet normal 2.606153e-14 -9.925462e-01 1.218693e-01
    outer loop
      vertex   -8.740000e+01 8.491878e+01 -1.451807e+01
      vertex   -8.336764e+01 8.430113e+01 -1.954844e+01
      vertex   -8.285000e+01 8.430943e+01 -1.948080e+01
    endloop
  endfacet
  facet normal 0.000000e+00 -9.925462e-01 1.218693e-01
    outer loop
      vertex   -8.285000e+01 8.430943e+01 -1.948080e+01
      vertex   -6.835000e+01 8.430943e+01 -1.948080e+01
      vertex   -8.740000e+01 8.491878e+01 -1.451807e+01
    endloop
  endfacet
  facet normal 1.750542e-15 -9.925462e-01 1.218693e-01
    outer loop
      vertex   -6.735000e+01 8.427678e+01 -1.974675e+01
      vertex   -6.693579e+01 8.423804e+01 -2.006222e+01
      vertex   0.000000e+00 8.491878e+01 -1.451807e+01
    endloop
  endfacet
  facet normal -5.504470e-17 -9.925462e-01 1.218693e-01
    outer loop
      vertex   0.000000e+00 8.491878e+01 -1.451807e+01
      vertex   -6.693579e+01 8.423804e+01 -2.006222e+01
      vertex   0.000000e+00 8.370008e+01 -2.444353e+01
    endloop
  endfacet
  facet normal -1.303265e-15 -9.925462e-01 1.218693e-01
    outer loop
      vertex   0.000000e+00 8.370008e+01 -2.444353e+01
      vertex   -6.693579e+01 8.423804e+01 -2.006222e+01
      vertex   -6.661795e+01 8.418756e+01 -2.047335e+01
    endloop
  endfacet
  facet normal 7.629389e-16 -9.925462e-01 1.218693e-01
    outer loop
      vertex   0.000000e+00 8.370008e+01 -2.444353e+01
      vertex   -6.661795e+01 8.418756e+01 -2.047335e+01
      vertex   -6.641815e+01 8.412878e+01 -2.095211e+01
    endloop
  endfacet
  facet normal 9.520972e-16 -9.925462e-01 1.218693e-01
    outer loop
      vertex   -6.641815e+01 8.412878e+01 -2.095211e+01
      vertex   -6.635000e+01 8.406569e+01 -2.146589e+01
      vertex   0.000000e+00 8.370008e+01 -2.444353e+01
    endloop
  endfacet
  facet normal 0.000000e+00 -9.925462e-01 1.218693e-01
    outer loop
      vertex   0.000000e+00 8.370008e+01 -2.444353e+01
      vertex   -6.635000e+01 8.406569e+01 -2.146589e+01
      vertex   -6.635000e+01 8.370008e+01 -2.444353e+01
    endloop
  endfacet
  facet normal 0.000000e+00 9.925462e-01 -1.218693e-01
    outer loop
      vertex   -8.740000e+01 1.147882e+00 -4.232297e+00
      vertex   0.000000e+00 1.147882e+00 -4.232297e+00
      vertex   -8.740000e+01 -7.081156e-02 -1.415776e+01
    endloop
  endfacet
  facet normal 0.000000e+00 9.925462e-01 -1.218693e-01
    outer loop
      vertex   -8.740000e+01 -7.081156e-02 -1.415776e+01
      vertex   0.000000e+00 1.147882e+00 -4.232297e+00
      vertex   0.000000e+00 -7.081156e-02 -1.415776e+01
    endloop
  endfacet
  facet normal 1.000000e+00 0.000000e+00 0.000000e+00
    outer loop
      vertex   -8.740000e+01 8.491878e+01 -1.451807e+01
      vertex   -8.740000e+01 1.147882e+00 -4.232297e+00
      vertex   -8.740000e+01 8.370008e+01 -2.444353e+01
    endloop
  endfacet
  facet normal 1.000000e+00 0.000000e+00 0.000000e+00
    outer loop
      vertex   -8.740000e+01 8.370008e+01 -2.444353e+01
      vertex   -8.740000e+01 1.147882e+00 -4.232297e+00
      vertex   -8.740000e+01 -7.081156e-02 -1.415776e+01
    endloop
  endfacet
  facet normal -1.000000e+00 0.000000e+00 -0.000000e+00
    outer loop
      vertex   -6.635000e+01 8.406569e+01 -2.146589e+01
      vertex   -6.635000e+01 9.349488e+01 -2.262365e+01
      vertex   -6.635000e+01 8.370008e+01 -2.444353e+01
    endloop
  endfacet
  facet normal -1.000000e+00 0.000000e+00 0.000000e+00
    outer loop
      vertex   -6.635000e+01 8.370008e+01 -2.444353e+01
      vertex   -6.635000e+01 9.349488e+01 -2.262365e+01
      vertex   -6.635000e+01 9.312927e+01 -2.560129e+01
    endloop
  endfacet
endsolid
